<svg xmlns="http://www.w3.org/2000/svg" xmlns:xlink="http://www.w3.org/1999/xlink" width="500" zoomAndPan="magnify" viewBox="0 0 375 374.999991" height="500" preserveAspectRatio="xMidYMid meet" version="1.2"><defs/><g id="28d8946cdf"><g style="fill:#ffffff;fill-opacity:1;"><g transform="translate(146.054714, 224.68905)"><path style="stroke:none" d="M 28.171875 -69.796875 C 31.484375 -70.859375 35.234375 -71.503906 39.421875 -71.734375 C 43.617188 -71.960938 47.78125 -71.613281 51.90625 -70.6875 C 56.039062 -69.769531 59.734375 -68.007812 62.984375 -65.40625 C 63.609375 -64.65625 63.550781 -63.472656 62.8125 -61.859375 C 62.082031 -60.253906 61.125 -58.828125 59.9375 -57.578125 C 58.75 -56.328125 57.71875 -55.851562 56.84375 -56.15625 C 53.332031 -58.300781 49.53125 -59.660156 45.4375 -60.234375 C 41.351562 -60.804688 37.550781 -60.597656 34.03125 -59.609375 C 29.707031 -58.421875 25.773438 -55.796875 22.234375 -51.734375 C 18.691406 -47.679688 16.070312 -42.941406 14.375 -37.515625 C 12.675781 -32.191406 11.914062 -27.191406 12.09375 -22.515625 C 12.28125 -17.847656 13.359375 -14.757812 15.328125 -13.25 C 17.421875 -11.644531 19.695312 -11.804688 22.15625 -13.734375 C 24.613281 -15.671875 26.976562 -18.710938 29.25 -22.859375 C 31.53125 -27.015625 33.523438 -31.734375 35.234375 -37.015625 C 36.953125 -42.296875 38.15625 -47.484375 38.84375 -52.578125 C 39.445312 -53.585938 40.507812 -54.242188 42.03125 -54.546875 C 43.5625 -54.859375 45.195312 -54.914062 46.9375 -54.71875 C 48.6875 -54.53125 50.242188 -54.15625 51.609375 -53.59375 C 52.984375 -53.039062 53.78125 -52.367188 54 -51.578125 C 53.550781 -48.597656 53.007812 -44.925781 52.375 -40.5625 C 51.75 -36.207031 51.316406 -32.085938 51.078125 -28.203125 C 50.410156 -20.503906 51.820312 -16.878906 55.3125 -17.328125 C 57.238281 -17.679688 59.398438 -19.082031 61.796875 -21.53125 C 64.203125 -23.976562 66.5 -27.191406 68.6875 -31.171875 C 70.882812 -35.160156 72.613281 -39.484375 73.875 -44.140625 C 74.113281 -44.785156 74.738281 -45.019531 75.75 -44.84375 C 76.757812 -44.664062 77.722656 -44.269531 78.640625 -43.65625 C 79.554688 -43.039062 79.898438 -42.40625 79.671875 -41.75 C 77.722656 -35.863281 75.289062 -30.28125 72.375 -25 C 69.457031 -19.726562 66.085938 -15.359375 62.265625 -11.890625 C 58.441406 -8.421875 54.117188 -6.375 49.296875 -5.75 C 45.609375 -5.269531 42.625 -6.578125 40.34375 -9.671875 C 38.070312 -12.765625 37.03125 -17.191406 37.21875 -22.953125 C 35.863281 -19.660156 34.25 -16.40625 32.375 -13.1875 C 30.5 -9.976562 28.195312 -7.234375 25.46875 -4.953125 C 22.75 -2.671875 19.289062 -1.207031 15.09375 -0.5625 C 11.394531 -0.0820312 7.972656 -0.546875 4.828125 -1.953125 C 1.679688 -3.367188 -0.820312 -5.859375 -2.6875 -9.421875 C -4.5625 -12.992188 -5.414062 -17.707031 -5.25 -23.5625 C -5.007812 -30.582031 -3.296875 -37.289062 -0.109375 -43.6875 C 3.078125 -50.09375 7.179688 -55.628906 12.203125 -60.296875 C 17.234375 -64.960938 22.554688 -68.128906 28.171875 -69.796875 Z M 28.171875 -69.796875 "/></g></g><g style="fill:#ffffff;fill-opacity:1;"><g transform="translate(223.416306, 214.668156)"><path style="stroke:none" d="M 15.203125 -70.9375 C 17.898438 -67.84375 21.578125 -66 26.234375 -65.40625 C 30.898438 -64.8125 35.628906 -65.347656 40.421875 -67.015625 C 44.054688 -68.742188 47.203125 -69.382812 49.859375 -68.9375 C 52.523438 -68.5 54.382812 -67.4375 55.4375 -65.75 C 56.5 -64.070312 56.4375 -62.160156 55.25 -60.015625 C 51.414062 -52.640625 47.546875 -45.285156 43.640625 -37.953125 C 39.734375 -30.617188 34.925781 -23.296875 29.21875 -15.984375 C 31.457031 -16.378906 33.457031 -16.398438 35.21875 -16.046875 C 36.976562 -15.703125 38.789062 -15.390625 40.65625 -15.109375 C 42.519531 -14.835938 44.675781 -14.910156 47.125 -15.328125 C 51.613281 -16.117188 55.832031 -18.929688 59.78125 -23.765625 C 63.738281 -28.609375 66.953125 -35.207031 69.421875 -43.5625 C 69.648438 -44.207031 70.242188 -44.4375 71.203125 -44.25 C 72.171875 -44.070312 73.109375 -43.675781 74.015625 -43.0625 C 74.929688 -42.445312 75.332031 -41.816406 75.21875 -41.171875 C 73.164062 -34.453125 70.5625 -28.359375 67.40625 -22.890625 C 64.25 -17.429688 60.648438 -13.003906 56.609375 -9.609375 C 52.578125 -6.210938 48.265625 -4.113281 43.671875 -3.3125 C 40.203125 -2.75 37.285156 -2.734375 34.921875 -3.265625 C 32.554688 -3.796875 30.300781 -4.285156 28.15625 -4.734375 C 26.019531 -5.191406 23.332031 -5 20.09375 -4.15625 C 17.25 -1.289062 14.5625 0.457031 12.03125 1.09375 C 9.507812 1.738281 7.347656 1.578125 5.546875 0.609375 C 3.753906 -0.359375 2.609375 -1.773438 2.109375 -3.640625 C 1.609375 -5.503906 1.953125 -7.476562 3.140625 -9.5625 C 4.335938 -11.644531 6.65625 -13.476562 10.09375 -15.0625 C 15.257812 -21.882812 19.867188 -28.554688 23.921875 -35.078125 C 27.972656 -41.597656 31.644531 -48.25 34.9375 -55.03125 C 32.425781 -54.289062 29.648438 -53.984375 26.609375 -54.109375 C 23.566406 -54.242188 20.613281 -54.882812 17.75 -56.03125 C 14.894531 -57.175781 12.492188 -58.816406 10.546875 -60.953125 C 9.328125 -54.328125 7.84375 -48.296875 6.09375 -42.859375 C 4.351562 -37.421875 2.488281 -31.914062 0.5 -26.34375 C 0.257812 -25.6875 -0.382812 -25.421875 -1.4375 -25.546875 C -2.488281 -25.671875 -3.441406 -26.015625 -4.296875 -26.578125 C -5.160156 -27.140625 -5.472656 -27.75 -5.234375 -28.40625 C -3.828125 -32.75 -2.53125 -36.796875 -1.34375 -40.546875 C -0.15625 -44.304688 0.925781 -48.226562 1.90625 -52.3125 C 2.882812 -56.40625 3.828125 -61.015625 4.734375 -66.140625 C 1.929688 -69.222656 0.535156 -72.117188 0.546875 -74.828125 C 0.554688 -77.546875 1.34375 -79.707031 2.90625 -81.3125 C 4.476562 -82.914062 6.296875 -83.773438 8.359375 -83.890625 C 10.429688 -84.003906 12.171875 -83.054688 13.578125 -81.046875 C 14.984375 -79.035156 15.523438 -75.664062 15.203125 -70.9375 Z M 15.203125 -70.9375 "/></g></g><g style="fill:#ffffff;fill-opacity:1;"><g transform="translate(296.163895, 205.244928)"><path style="stroke:none" d="M 30.609375 -70.28125 C 36.390625 -70.8125 40.992188 -69.921875 44.421875 -67.609375 C 47.847656 -65.296875 50.066406 -62.222656 51.078125 -58.390625 C 52.097656 -54.554688 51.878906 -50.613281 50.421875 -46.5625 C 48.296875 -40.457031 43.976562 -35.753906 37.46875 -32.453125 C 30.96875 -29.160156 23.125 -27.960938 13.9375 -28.859375 C 14.164062 -23.890625 15.832031 -20.066406 18.9375 -17.390625 C 22.050781 -14.722656 26.300781 -13.472656 31.6875 -13.640625 C 35.226562 -13.785156 39.117188 -14.785156 43.359375 -16.640625 C 47.597656 -18.492188 51.601562 -21.539062 55.375 -25.78125 C 59.15625 -30.03125 62.09375 -35.734375 64.1875 -42.890625 C 64.425781 -43.523438 65.070312 -43.757812 66.125 -43.59375 C 67.1875 -43.425781 68.175781 -43.035156 69.09375 -42.421875 C 70.007812 -41.804688 70.351562 -41.164062 70.125 -40.5 C 67.957031 -33.132812 65.28125 -27.054688 62.09375 -22.265625 C 58.914062 -17.472656 55.445312 -13.664062 51.6875 -10.84375 C 47.9375 -8.019531 44.113281 -5.960938 40.21875 -4.671875 C 36.320312 -3.378906 32.519531 -2.546875 28.8125 -2.171875 C 20.988281 -1.367188 14.597656 -2.363281 9.640625 -5.15625 C 4.691406 -7.957031 1.144531 -11.847656 -1 -16.828125 C -3.15625 -21.816406 -3.988281 -27.257812 -3.5 -33.15625 C -2.945312 -40.113281 -1.117188 -46.269531 1.984375 -51.625 C 5.097656 -56.976562 9.15625 -61.28125 14.15625 -64.53125 C 19.15625 -67.789062 24.640625 -69.707031 30.609375 -70.28125 Z M 30.03125 -59.09375 C 27.644531 -59 25.285156 -57.882812 22.953125 -55.75 C 20.628906 -53.625 18.660156 -50.894531 17.046875 -47.5625 C 15.441406 -44.226562 14.421875 -40.65625 13.984375 -36.84375 C 19.847656 -36.757812 24.535156 -37.832031 28.046875 -40.0625 C 31.566406 -42.289062 33.867188 -45.203125 34.953125 -48.796875 C 35.859375 -51.515625 36.007812 -53.976562 35.40625 -56.1875 C 34.8125 -58.40625 33.019531 -59.375 30.03125 -59.09375 Z M 30.03125 -59.09375 "/></g></g><g style="fill:#ffffff;fill-opacity:1;"><g transform="translate(165.204551, 256.173184)"><path style="stroke:none" d="M 8.625 -0.671875 C 7.164062 -0.484375 5.832031 -0.648438 4.625 -1.171875 C 3.425781 -1.703125 2.429688 -2.515625 1.640625 -3.609375 C 0.847656 -4.703125 0.359375 -6 0.171875 -7.5 C -0.015625 -9.007812 0.144531 -10.382812 0.65625 -11.625 C 1.164062 -12.863281 1.9375 -13.878906 2.96875 -14.671875 C 4.007812 -15.472656 5.257812 -15.96875 6.71875 -16.15625 C 7.625 -16.257812 8.484375 -16.222656 9.296875 -16.046875 C 10.117188 -15.878906 10.878906 -15.59375 11.578125 -15.1875 L 10.6875 -22.359375 L 14.9375 -22.875 L 17.5 -2.15625 L 14.34375 -1.765625 L 13.625 -3.375 C 13.050781 -2.644531 12.335938 -2.039062 11.484375 -1.5625 C 10.640625 -1.09375 9.6875 -0.796875 8.625 -0.671875 Z M 4.375 -8.015625 C 4.519531 -6.816406 5.019531 -5.878906 5.875 -5.203125 C 6.726562 -4.535156 7.75 -4.273438 8.9375 -4.421875 C 10.144531 -4.566406 11.070312 -5.066406 11.71875 -5.921875 C 12.363281 -6.785156 12.613281 -7.816406 12.46875 -9.015625 C 12.320312 -10.222656 11.832031 -11.160156 11 -11.828125 C 10.164062 -12.492188 9.144531 -12.753906 7.9375 -12.609375 C 6.75 -12.460938 5.820312 -11.960938 5.15625 -11.109375 C 4.488281 -10.253906 4.226562 -9.222656 4.375 -8.015625 Z M 4.375 -8.015625 "/></g></g><g style="fill:#ffffff;fill-opacity:1;"><g transform="translate(184.826757, 253.752374)"><path style="stroke:none" d="M 9.125 -0.734375 C 7.550781 -0.535156 6.117188 -0.6875 4.828125 -1.1875 C 3.546875 -1.6875 2.492188 -2.484375 1.671875 -3.578125 C 0.859375 -4.671875 0.359375 -5.976562 0.171875 -7.5 C -0.015625 -9.03125 0.15625 -10.414062 0.6875 -11.65625 C 1.226562 -12.90625 2.0625 -13.925781 3.1875 -14.71875 C 4.320312 -15.519531 5.6875 -16.019531 7.28125 -16.21875 C 8.945312 -16.425781 10.441406 -16.234375 11.765625 -15.640625 C 13.085938 -15.046875 14.148438 -14.113281 14.953125 -12.84375 C 15.753906 -11.582031 16.222656 -10.050781 16.359375 -8.25 L 4.5625 -6.796875 C 4.894531 -5.804688 5.4375 -5.085938 6.1875 -4.640625 C 6.945312 -4.203125 7.816406 -4.039062 8.796875 -4.15625 C 9.492188 -4.25 10.117188 -4.460938 10.671875 -4.796875 C 11.234375 -5.140625 11.660156 -5.578125 11.953125 -6.109375 L 16.265625 -6.640625 C 15.816406 -5.003906 14.960938 -3.664062 13.703125 -2.625 C 12.453125 -1.582031 10.925781 -0.953125 9.125 -0.734375 Z M 4.25 -9.484375 L 11.90625 -10.4375 C 11.5625 -11.300781 11.023438 -11.945312 10.296875 -12.375 C 9.566406 -12.800781 8.710938 -12.953125 7.734375 -12.828125 C 6.785156 -12.710938 6 -12.359375 5.375 -11.765625 C 4.757812 -11.171875 4.382812 -10.410156 4.25 -9.484375 Z M 4.25 -9.484375 "/></g></g><g style="fill:#ffffff;fill-opacity:1;"><g transform="translate(202.993405, 251.511138)"><path style="stroke:none" d="M 7.828125 -0.5625 C 6.484375 -0.40625 5.285156 -0.476562 4.234375 -0.78125 C 3.191406 -1.09375 2.34375 -1.59375 1.6875 -2.28125 C 1.039062 -2.976562 0.65625 -3.84375 0.53125 -4.875 L 4.703125 -5.390625 C 4.796875 -4.785156 5.085938 -4.335938 5.578125 -4.046875 C 6.078125 -3.753906 6.71875 -3.65625 7.5 -3.75 C 8.175781 -3.832031 8.679688 -4.019531 9.015625 -4.3125 C 9.359375 -4.613281 9.503906 -4.976562 9.453125 -5.40625 C 9.398438 -5.875 9.097656 -6.226562 8.546875 -6.46875 C 8.003906 -6.71875 7.15625 -6.863281 6 -6.90625 C 4.09375 -7.007812 2.648438 -7.378906 1.671875 -8.015625 C 0.703125 -8.660156 0.144531 -9.585938 0 -10.796875 C -0.175781 -12.234375 0.222656 -13.398438 1.203125 -14.296875 C 2.191406 -15.203125 3.671875 -15.773438 5.640625 -16.015625 C 7.609375 -16.265625 9.195312 -16.035156 10.40625 -15.328125 C 11.625 -14.628906 12.375 -13.507812 12.65625 -11.96875 L 8.59375 -11.46875 C 8.476562 -12.019531 8.191406 -12.421875 7.734375 -12.671875 C 7.285156 -12.929688 6.703125 -13.019531 5.984375 -12.9375 C 5.359375 -12.863281 4.875 -12.679688 4.53125 -12.390625 C 4.195312 -12.109375 4.054688 -11.75 4.109375 -11.3125 C 4.160156 -10.863281 4.441406 -10.539062 4.953125 -10.34375 C 5.460938 -10.15625 6.359375 -10.007812 7.640625 -9.90625 C 11.359375 -9.613281 13.363281 -8.273438 13.65625 -5.890625 C 13.832031 -4.492188 13.40625 -3.316406 12.375 -2.359375 C 11.34375 -1.410156 9.828125 -0.8125 7.828125 -0.5625 Z M 7.828125 -0.5625 "/></g></g><g style="fill:#ffffff;fill-opacity:1;"><g transform="translate(218.304889, 249.622146)"><path style="stroke:none" d="M 2.125 -0.265625 L 0.3125 -14.96875 L 4.578125 -15.484375 L 6.390625 -0.78125 Z M -0.890625 -19.65625 C -0.984375 -20.4375 -0.800781 -21.101562 -0.34375 -21.65625 C 0.101562 -22.21875 0.726562 -22.550781 1.53125 -22.65625 C 2.34375 -22.75 3.03125 -22.578125 3.59375 -22.140625 C 4.164062 -21.710938 4.5 -21.109375 4.59375 -20.328125 C 4.695312 -19.535156 4.523438 -18.863281 4.078125 -18.3125 C 3.628906 -17.757812 3 -17.4375 2.1875 -17.34375 C 1.382812 -17.238281 0.695312 -17.398438 0.125 -17.828125 C -0.445312 -18.253906 -0.785156 -18.863281 -0.890625 -19.65625 Z M -0.890625 -19.65625 "/></g></g><g style="fill:#ffffff;fill-opacity:1;"><g transform="translate(226.814386, 248.572322)"><path style="stroke:none" d="M 10.0625 5.078125 C 7.9375 5.335938 6.144531 5.0625 4.6875 4.25 C 3.226562 3.4375 2.300781 2.203125 1.90625 0.546875 L 6.0625 0.03125 C 6.28125 0.632812 6.695312 1.082031 7.3125 1.375 C 7.925781 1.664062 8.675781 1.753906 9.5625 1.640625 C 11.914062 1.347656 12.945312 0.00390625 12.65625 -2.390625 L 12.515625 -3.421875 C 11.972656 -2.878906 11.328125 -2.429688 10.578125 -2.078125 C 9.835938 -1.734375 9.03125 -1.507812 8.15625 -1.40625 C 6.78125 -1.226562 5.515625 -1.382812 4.359375 -1.875 C 3.210938 -2.375 2.265625 -3.140625 1.515625 -4.171875 C 0.765625 -5.210938 0.300781 -6.453125 0.125 -7.890625 C -0.0507812 -9.328125 0.0976562 -10.632812 0.578125 -11.8125 C 1.054688 -12.988281 1.789062 -13.953125 2.78125 -14.703125 C 3.78125 -15.460938 4.96875 -15.929688 6.34375 -16.109375 C 7.382812 -16.234375 8.367188 -16.175781 9.296875 -15.9375 C 10.234375 -15.707031 11.054688 -15.304688 11.765625 -14.734375 L 12.015625 -16.40625 L 15.1875 -16.796875 L 16.90625 -2.90625 C 17.082031 -1.457031 16.921875 -0.164062 16.421875 0.96875 C 15.929688 2.113281 15.140625 3.035156 14.046875 3.734375 C 12.953125 4.429688 11.625 4.878906 10.0625 5.078125 Z M 4.328125 -8.40625 C 4.460938 -7.269531 4.929688 -6.390625 5.734375 -5.765625 C 6.535156 -5.148438 7.5 -4.910156 8.625 -5.046875 C 9.738281 -5.179688 10.609375 -5.644531 11.234375 -6.4375 C 11.867188 -7.238281 12.117188 -8.207031 11.984375 -9.34375 C 11.835938 -10.46875 11.363281 -11.335938 10.5625 -11.953125 C 9.757812 -12.578125 8.800781 -12.820312 7.6875 -12.6875 C 6.5625 -12.550781 5.679688 -12.082031 5.046875 -11.28125 C 4.421875 -10.488281 4.179688 -9.53125 4.328125 -8.40625 Z M 4.328125 -8.40625 "/></g></g><g style="fill:#ffffff;fill-opacity:1;"><g transform="translate(245.960743, 246.210218)"><path style="stroke:none" d="M 2.125 -0.265625 L 0.3125 -14.96875 L 3.46875 -15.359375 L 4.125 -13.765625 C 4.644531 -14.515625 5.304688 -15.109375 6.109375 -15.546875 C 6.921875 -15.992188 7.8125 -16.28125 8.78125 -16.40625 C 10.695312 -16.644531 12.273438 -16.234375 13.515625 -15.171875 C 14.765625 -14.109375 15.515625 -12.5625 15.765625 -10.53125 L 16.8125 -2.078125 L 12.546875 -1.546875 L 11.5625 -9.5625 C 11.425781 -10.632812 11.066406 -11.441406 10.484375 -11.984375 C 9.898438 -12.535156 9.144531 -12.753906 8.21875 -12.640625 C 7.25 -12.523438 6.503906 -12.09375 5.984375 -11.34375 C 5.472656 -10.59375 5.289062 -9.640625 5.4375 -8.484375 L 6.390625 -0.78125 Z M 2.125 -0.265625 "/></g></g><g style="fill:#ffffff;fill-opacity:1;"><g transform="translate(264.603241, 243.910276)"><path style="stroke:none" d=""/></g></g><g style="fill:#ffffff;fill-opacity:1;"><g transform="translate(271.181307, 243.098734)"><path style="stroke:none" d="M 7.828125 -0.5625 C 6.484375 -0.40625 5.285156 -0.476562 4.234375 -0.78125 C 3.191406 -1.09375 2.34375 -1.59375 1.6875 -2.28125 C 1.039062 -2.976562 0.65625 -3.84375 0.53125 -4.875 L 4.703125 -5.390625 C 4.796875 -4.785156 5.085938 -4.335938 5.578125 -4.046875 C 6.078125 -3.753906 6.71875 -3.65625 7.5 -3.75 C 8.175781 -3.832031 8.679688 -4.019531 9.015625 -4.3125 C 9.359375 -4.613281 9.503906 -4.976562 9.453125 -5.40625 C 9.398438 -5.875 9.097656 -6.226562 8.546875 -6.46875 C 8.003906 -6.71875 7.15625 -6.863281 6 -6.90625 C 4.09375 -7.007812 2.648438 -7.378906 1.671875 -8.015625 C 0.703125 -8.660156 0.144531 -9.585938 0 -10.796875 C -0.175781 -12.234375 0.222656 -13.398438 1.203125 -14.296875 C 2.191406 -15.203125 3.671875 -15.773438 5.640625 -16.015625 C 7.609375 -16.265625 9.195312 -16.035156 10.40625 -15.328125 C 11.625 -14.628906 12.375 -13.507812 12.65625 -11.96875 L 8.59375 -11.46875 C 8.476562 -12.019531 8.191406 -12.421875 7.734375 -12.671875 C 7.285156 -12.929688 6.703125 -13.019531 5.984375 -12.9375 C 5.359375 -12.863281 4.875 -12.679688 4.53125 -12.390625 C 4.195312 -12.109375 4.054688 -11.75 4.109375 -11.3125 C 4.160156 -10.863281 4.441406 -10.539062 4.953125 -10.34375 C 5.460938 -10.15625 6.359375 -10.007812 7.640625 -9.90625 C 11.359375 -9.613281 13.363281 -8.273438 13.65625 -5.890625 C 13.832031 -4.492188 13.40625 -3.316406 12.375 -2.359375 C 11.34375 -1.410156 9.828125 -0.8125 7.828125 -0.5625 Z M 7.828125 -0.5625 "/></g></g><g style="fill:#ffffff;fill-opacity:1;"><g transform="translate(286.492791, 241.209742)"><path style="stroke:none" d="M 9.21875 -1.140625 C 7.351562 -0.910156 5.859375 -1.210938 4.734375 -2.046875 C 3.609375 -2.890625 2.9375 -4.203125 2.71875 -5.984375 L 2.015625 -11.65625 L -0.828125 -11.296875 L -1.25 -14.765625 L 0.0625 -14.9375 C 0.863281 -15.03125 1.394531 -15.222656 1.65625 -15.515625 C 1.914062 -15.816406 2.050781 -16.347656 2.0625 -17.109375 L 2.09375 -19.0625 L 5.390625 -19.46875 L 5.859375 -15.65625 L 9.890625 -16.140625 L 10.3125 -12.671875 L 6.28125 -12.1875 L 6.90625 -7.171875 C 7.113281 -5.484375 8.039062 -4.738281 9.6875 -4.9375 L 11.453125 -5.15625 L 11.90625 -1.46875 Z M 9.21875 -1.140625 "/></g></g><g style="fill:#ffffff;fill-opacity:1;"><g transform="translate(299.56494, 239.597019)"><path style="stroke:none" d="M 8.03125 -0.59375 C 6.125 -0.351562 4.550781 -0.769531 3.3125 -1.84375 C 2.070312 -2.914062 1.320312 -4.472656 1.0625 -6.515625 L 0.03125 -14.9375 L 4.296875 -15.453125 L 5.28125 -7.453125 C 5.414062 -6.367188 5.773438 -5.554688 6.359375 -5.015625 C 6.941406 -4.472656 7.6875 -4.257812 8.59375 -4.375 C 9.5625 -4.5 10.289062 -4.929688 10.78125 -5.671875 C 11.28125 -6.410156 11.460938 -7.363281 11.328125 -8.53125 L 10.375 -16.203125 L 14.625 -16.734375 L 16.4375 -2.03125 L 13.28125 -1.640625 L 12.625 -3.234375 C 12.125 -2.472656 11.472656 -1.875 10.671875 -1.4375 C 9.878906 -1 9 -0.71875 8.03125 -0.59375 Z M 8.03125 -0.59375 "/></g></g><g style="fill:#ffffff;fill-opacity:1;"><g transform="translate(318.123476, 237.307435)"><path style="stroke:none" d="M 8.625 -0.671875 C 7.164062 -0.484375 5.832031 -0.648438 4.625 -1.171875 C 3.425781 -1.703125 2.429688 -2.515625 1.640625 -3.609375 C 0.847656 -4.703125 0.359375 -6 0.171875 -7.5 C -0.015625 -9.007812 0.144531 -10.382812 0.65625 -11.625 C 1.164062 -12.863281 1.9375 -13.878906 2.96875 -14.671875 C 4.007812 -15.472656 5.257812 -15.96875 6.71875 -16.15625 C 7.625 -16.257812 8.484375 -16.222656 9.296875 -16.046875 C 10.117188 -15.878906 10.878906 -15.59375 11.578125 -15.1875 L 10.6875 -22.359375 L 14.9375 -22.875 L 17.5 -2.15625 L 14.34375 -1.765625 L 13.625 -3.375 C 13.050781 -2.644531 12.335938 -2.039062 11.484375 -1.5625 C 10.640625 -1.09375 9.6875 -0.796875 8.625 -0.671875 Z M 4.375 -8.015625 C 4.519531 -6.816406 5.019531 -5.878906 5.875 -5.203125 C 6.726562 -4.535156 7.75 -4.273438 8.9375 -4.421875 C 10.144531 -4.566406 11.070312 -5.066406 11.71875 -5.921875 C 12.363281 -6.785156 12.613281 -7.816406 12.46875 -9.015625 C 12.320312 -10.222656 11.832031 -11.160156 11 -11.828125 C 10.164062 -12.492188 9.144531 -12.753906 7.9375 -12.609375 C 6.75 -12.460938 5.820312 -11.960938 5.15625 -11.109375 C 4.488281 -10.253906 4.226562 -9.222656 4.375 -8.015625 Z M 4.375 -8.015625 "/></g></g><g style="fill:#ffffff;fill-opacity:1;"><g transform="translate(337.745683, 234.886626)"><path style="stroke:none" d="M 2.125 -0.265625 L 0.3125 -14.96875 L 4.578125 -15.484375 L 6.390625 -0.78125 Z M -0.890625 -19.65625 C -0.984375 -20.4375 -0.800781 -21.101562 -0.34375 -21.65625 C 0.101562 -22.21875 0.726562 -22.550781 1.53125 -22.65625 C 2.34375 -22.75 3.03125 -22.578125 3.59375 -22.140625 C 4.164062 -21.710938 4.5 -21.109375 4.59375 -20.328125 C 4.695312 -19.535156 4.523438 -18.863281 4.078125 -18.3125 C 3.628906 -17.757812 3 -17.4375 2.1875 -17.34375 C 1.382812 -17.238281 0.695312 -17.398438 0.125 -17.828125 C -0.445312 -18.253906 -0.785156 -18.863281 -0.890625 -19.65625 Z M -0.890625 -19.65625 "/></g></g><g style="fill:#ffffff;fill-opacity:1;"><g transform="translate(346.25518, 233.836801)"><path style="stroke:none" d="M 9.390625 -0.765625 C 7.773438 -0.566406 6.304688 -0.710938 4.984375 -1.203125 C 3.660156 -1.703125 2.570312 -2.492188 1.71875 -3.578125 C 0.875 -4.671875 0.359375 -5.976562 0.171875 -7.5 C -0.015625 -9.03125 0.164062 -10.414062 0.71875 -11.65625 C 1.28125 -12.90625 2.144531 -13.929688 3.3125 -14.734375 C 4.476562 -15.546875 5.867188 -16.050781 7.484375 -16.25 C 9.109375 -16.445312 10.582031 -16.296875 11.90625 -15.796875 C 13.226562 -15.304688 14.304688 -14.519531 15.140625 -13.4375 C 15.972656 -12.363281 16.484375 -11.0625 16.671875 -9.53125 C 16.859375 -8.007812 16.679688 -6.617188 16.140625 -5.359375 C 15.597656 -4.109375 14.742188 -3.078125 13.578125 -2.265625 C 12.410156 -1.460938 11.015625 -0.960938 9.390625 -0.765625 Z M 4.375 -8.015625 C 4.519531 -6.816406 5.019531 -5.878906 5.875 -5.203125 C 6.726562 -4.535156 7.75 -4.273438 8.9375 -4.421875 C 10.144531 -4.566406 11.070312 -5.066406 11.71875 -5.921875 C 12.363281 -6.785156 12.613281 -7.816406 12.46875 -9.015625 C 12.320312 -10.234375 11.832031 -11.171875 11 -11.828125 C 10.164062 -12.492188 9.144531 -12.753906 7.9375 -12.609375 C 6.75 -12.460938 5.820312 -11.960938 5.15625 -11.109375 C 4.488281 -10.265625 4.226562 -9.234375 4.375 -8.015625 Z M 4.375 -8.015625 "/></g></g><g style="fill:#ffffff;fill-opacity:1;"><g transform="translate(8.197669, 260.348581)"><path style="stroke:none" d="M 129.53125 -0.8125 C 124.050781 -0.53125 119.097656 -1.914062 114.671875 -4.96875 C 110.242188 -8.019531 106.207031 -12.003906 102.5625 -16.921875 C 98.925781 -21.835938 95.628906 -27.003906 92.671875 -32.421875 C 89.710938 -37.835938 87.035156 -42.722656 84.640625 -47.078125 C 83.691406 -48.847656 82.632812 -50.722656 81.46875 -52.703125 C 80.300781 -54.691406 78.90625 -56.320312 77.28125 -57.59375 L 70.71875 -56.5 C 69.644531 -48.363281 68.613281 -40.519531 67.625 -32.96875 C 66.632812 -25.414062 65.972656 -19.171875 65.640625 -14.234375 C 64.984375 -12.835938 63.179688 -11.539062 60.234375 -10.34375 C 57.285156 -9.144531 54.023438 -8.25 50.453125 -7.65625 C 46.890625 -7.0625 43.78125 -7.023438 41.125 -7.546875 C 38.476562 -8.066406 36.988281 -9.328125 36.65625 -11.328125 C 36.96875 -13.304688 37.414062 -16.75 38 -21.65625 C 38.59375 -26.570312 39.289062 -32.210938 40.09375 -38.578125 C 40.894531 -44.941406 41.707031 -51.40625 42.53125 -57.96875 C 43.363281 -64.53125 44.203125 -70.484375 45.046875 -75.828125 C 45.890625 -81.171875 46.660156 -85.25 47.359375 -88.0625 C 48.554688 -93.144531 50.03125 -98.144531 51.78125 -103.0625 C 53.53125 -107.976562 55.597656 -111.789062 57.984375 -114.5 C 59.492188 -116.164062 61.539062 -117.34375 64.125 -118.03125 C 66.707031 -118.71875 69.347656 -119.0625 72.046875 -119.0625 C 74.742188 -119.0625 77.039062 -118.769531 78.9375 -118.1875 C 80.832031 -117.601562 81.851562 -116.875 82 -116 C 81.207031 -114.570312 80.257812 -111.773438 79.15625 -107.609375 C 78.050781 -103.453125 76.9375 -98.390625 75.8125 -92.421875 C 74.6875 -86.460938 73.550781 -79.984375 72.40625 -72.984375 C 78.757812 -74.160156 84.476562 -76.265625 89.5625 -79.296875 C 94.644531 -82.335938 98.609375 -86.304688 101.453125 -91.203125 C 104.296875 -96.109375 105.367188 -101.78125 104.671875 -108.21875 C 104.265625 -113.03125 102.390625 -116.988281 99.046875 -120.09375 C 95.703125 -123.195312 91.507812 -125.382812 86.46875 -126.65625 C 81.4375 -127.9375 75.988281 -128.085938 70.125 -127.109375 C 63.476562 -126.128906 57.269531 -124.257812 51.5 -121.5 C 45.726562 -118.75 41.054688 -115.40625 37.484375 -111.46875 C 33.867188 -107.644531 31.640625 -103.445312 30.796875 -98.875 C 29.953125 -94.3125 30.960938 -89.632812 33.828125 -84.84375 C 34.078125 -83.34375 33.429688 -81.4375 31.890625 -79.125 C 30.347656 -76.8125 28.34375 -74.773438 25.875 -73.015625 C 23.40625 -71.253906 20.890625 -70.347656 18.328125 -70.296875 C 13.910156 -71.367188 10.09375 -73.625 6.875 -77.0625 C 3.664062 -80.507812 1.773438 -84.367188 1.203125 -88.640625 C 0.078125 -96.160156 1.207031 -103.0625 4.59375 -109.34375 C 7.976562 -115.625 12.960938 -121.144531 19.546875 -125.90625 C 26.128906 -130.675781 33.742188 -134.679688 42.390625 -137.921875 C 51.035156 -141.160156 59.992188 -143.484375 69.265625 -144.890625 C 77.265625 -146.222656 84.992188 -146.484375 92.453125 -145.671875 C 99.910156 -144.867188 106.628906 -143.101562 112.609375 -140.375 C 118.597656 -137.65625 123.484375 -134.003906 127.265625 -129.421875 C 131.046875 -124.847656 133.265625 -119.410156 133.921875 -113.109375 C 135.066406 -103.148438 132.890625 -94.050781 127.390625 -85.8125 C 121.898438 -77.582031 113.492188 -70.78125 102.171875 -65.40625 C 103.804688 -64.132812 105.335938 -62.492188 106.765625 -60.484375 C 108.203125 -58.472656 109.566406 -56.289062 110.859375 -53.9375 C 113.210938 -49.832031 115.75 -45.757812 118.46875 -41.71875 C 121.195312 -37.6875 124.269531 -34.285156 127.6875 -31.515625 C 131.113281 -28.753906 134.851562 -27.132812 138.90625 -26.65625 C 140.675781 -25.28125 141.757812 -23.210938 142.15625 -20.453125 C 142.5625 -17.691406 142.332031 -14.828125 141.46875 -11.859375 C 140.613281 -8.890625 139.175781 -6.335938 137.15625 -4.203125 C 135.132812 -2.066406 132.59375 -0.9375 129.53125 -0.8125 Z M 129.53125 -0.8125 "/></g></g></g></svg>